M48
; DRILL file {KiCad 7.0.2} date Mon Jun 19 16:04:48 2023
; FORMAT={-:-/ absolute / metric / decimal}
; #@! TF.CreationDate,2023-06-19T16:04:48-05:00
; #@! TF.GenerationSoftware,Kicad,Pcbnew,7.0.2
; #@! TF.FileFunction,MixedPlating,1,2
FMAT,2
METRIC
; #@! TA.AperFunction,Plated,PTH,ViaDrill
T1C0.800
; #@! TA.AperFunction,Plated,PTH,ComponentDrill
T2C0.800
%
G90
G05
T1
X95.123Y-89.789
X99.314Y-89.789
X143.764Y-86.97
X143.764Y-90.17
X165.989Y-91.44
X170.18Y-91.44
X175.26Y-86.97
X175.26Y-91.313
T2
X94.361Y-102.214
X95.494Y-93.513
X95.494Y-96.313
X96.901Y-102.214
X98.034Y-93.513
X98.034Y-96.313
X99.441Y-102.214
X102.494Y-91.313
X102.494Y-95.313
X102.494Y-99.313
X102.494Y-103.313
X110.114Y-91.313
X110.114Y-95.313
X110.114Y-99.313
X110.114Y-103.313
X127.254Y-91.313
X127.254Y-95.313
X127.254Y-99.313
X127.254Y-103.313
X134.874Y-91.313
X134.874Y-95.313
X134.874Y-99.313
X134.874Y-103.313
X138.557Y-102.362
X139.694Y-93.773
X139.694Y-96.313
X141.097Y-102.362
X142.494Y-93.773
X142.494Y-96.313
X143.637Y-102.362
X146.812Y-102.341
X147.994Y-93.513
X147.994Y-96.313
X149.352Y-102.341
X150.534Y-93.513
X150.534Y-96.313
X151.892Y-102.341
X154.994Y-91.313
X154.994Y-95.313
X154.994Y-99.313
X154.994Y-103.313
X162.614Y-91.313
X162.614Y-95.313
X162.614Y-99.313
X162.614Y-103.313
X180.254Y-91.313
X180.254Y-95.313
X180.254Y-100.711
X180.254Y-103.886
X187.874Y-91.313
X187.874Y-95.313
X187.874Y-100.711
X187.874Y-103.886
X191.77Y-102.108
X192.694Y-93.773
X192.694Y-96.313
X194.31Y-102.108
X195.494Y-93.773
X195.494Y-96.313
X196.85Y-102.108
X203.868Y-92.61
X203.868Y-94.61
X203.868Y-96.61
X203.868Y-98.61
X203.868Y-100.61
X203.868Y-102.61
T0
M30
