M48
; DRILL file {KiCad 7.0.2} date Sun Jun 18 06:34:20 2023
; FORMAT={-:-/ absolute / metric / decimal}
; #@! TF.CreationDate,2023-06-18T06:34:20-05:00
; #@! TF.GenerationSoftware,Kicad,Pcbnew,7.0.2
; #@! TF.FileFunction,MixedPlating,1,2
FMAT,2
METRIC
; #@! TA.AperFunction,Plated,PTH,ViaDrill
T1C0.600
; #@! TA.AperFunction,Plated,PTH,ComponentDrill
T2C0.750
; #@! TA.AperFunction,Plated,PTH,ComponentDrill
T3C0.800
%
G90
G05
T1
X100.584Y-88.148
X100.584Y-90.297
X141.173Y-87.577
X141.173Y-90.145
X165.506Y-87.577
X165.506Y-91.44
X177.419Y-91.44
X177.444Y-87.577
T2
X95.494Y-102.313
X96.764Y-102.313
X98.034Y-102.313
X139.954Y-102.313
X141.224Y-102.313
X142.494Y-102.313
X147.994Y-102.313
X149.264Y-102.313
X150.534Y-102.313
X192.954Y-102.313
X194.224Y-102.313
X195.494Y-102.313
T3
X95.494Y-93.513
X95.494Y-96.313
X98.034Y-93.513
X98.034Y-96.313
X102.494Y-91.313
X102.494Y-95.313
X102.494Y-99.313
X102.494Y-103.313
X110.114Y-91.313
X110.114Y-95.313
X110.114Y-99.313
X110.114Y-103.313
X127.254Y-91.313
X127.254Y-95.313
X127.254Y-99.313
X127.254Y-103.313
X134.874Y-91.313
X134.874Y-95.313
X134.874Y-99.313
X134.874Y-103.313
X139.694Y-93.773
X139.694Y-96.313
X142.494Y-93.773
X142.494Y-96.313
X147.994Y-93.513
X147.994Y-96.313
X150.534Y-93.513
X150.534Y-96.313
X154.994Y-91.313
X154.994Y-95.313
X154.994Y-99.313
X154.994Y-103.313
X162.614Y-91.313
X162.614Y-95.313
X162.614Y-99.313
X162.614Y-103.313
X180.254Y-91.313
X180.254Y-95.313
X180.254Y-99.313
X180.254Y-103.313
X187.874Y-91.313
X187.874Y-95.313
X187.874Y-99.313
X187.874Y-103.313
X192.694Y-93.773
X192.694Y-96.313
X195.494Y-93.773
X195.494Y-96.313
X203.868Y-92.61
X203.868Y-94.61
X203.868Y-96.61
X203.868Y-98.61
X203.868Y-100.61
X203.868Y-102.61
T0
M30
