%TF.GenerationSoftware,KiCad,Pcbnew,7.0.2*%
%TF.CreationDate,2023-05-10T18:03:48-05:00*%
%TF.ProjectId,Carro,43617272-6f2e-46b6-9963-61645f706362,rev?*%
%TF.SameCoordinates,Original*%
%TF.FileFunction,Soldermask,Bot*%
%TF.FilePolarity,Negative*%
%FSLAX46Y46*%
G04 Gerber Fmt 4.6, Leading zero omitted, Abs format (unit mm)*
G04 Created by KiCad (PCBNEW 7.0.2) date 2023-05-10 18:03:48*
%MOMM*%
%LPD*%
G01*
G04 APERTURE LIST*
%ADD10R,1.700000X1.700000*%
%ADD11O,1.700000X1.700000*%
%ADD12C,1.600000*%
%ADD13O,1.600000X1.600000*%
%ADD14R,0.850000X0.850000*%
%ADD15R,1.600000X1.600000*%
G04 APERTURE END LIST*
D10*
%TO.C,J1*%
X125857000Y-105664000D03*
D11*
X128397000Y-105664000D03*
%TD*%
D10*
%TO.C,J6*%
X143637000Y-62738000D03*
D11*
X141097000Y-62738000D03*
X138557000Y-62738000D03*
X136017000Y-62738000D03*
X133477000Y-62738000D03*
X130937000Y-62738000D03*
%TD*%
D10*
%TO.C,J4*%
X168148000Y-77470000D03*
D11*
X168148000Y-80010000D03*
X168148000Y-82550000D03*
X168148000Y-85090000D03*
%TD*%
D12*
%TO.C,R1*%
X146558000Y-76327000D03*
D13*
X154178000Y-76327000D03*
%TD*%
D14*
%TO.C,J7*%
X125000000Y-75000000D03*
%TD*%
%TO.C,J2*%
X125000000Y-70000000D03*
%TD*%
D15*
%TO.C,U1*%
X143891000Y-79756000D03*
D13*
X141351000Y-79756000D03*
X138811000Y-79756000D03*
X136271000Y-79756000D03*
X133731000Y-79756000D03*
X131191000Y-79756000D03*
X128651000Y-79756000D03*
X126111000Y-79756000D03*
X126111000Y-87376000D03*
X128651000Y-87376000D03*
X131191000Y-87376000D03*
X133731000Y-87376000D03*
X136271000Y-87376000D03*
X138811000Y-87376000D03*
X141351000Y-87376000D03*
X143891000Y-87376000D03*
%TD*%
D10*
%TO.C,J5*%
X144018000Y-72644000D03*
D11*
X146558000Y-72644000D03*
X149098000Y-72644000D03*
X151638000Y-72644000D03*
X154178000Y-72644000D03*
X156718000Y-72644000D03*
%TD*%
D10*
%TO.C,J3*%
X167513000Y-94615000D03*
D11*
X167513000Y-97155000D03*
X167513000Y-99695000D03*
%TD*%
D14*
%TO.C,J8*%
X125000000Y-93000000D03*
%TD*%
D12*
%TO.C,R2*%
X148463000Y-67945000D03*
D13*
X156083000Y-67945000D03*
%TD*%
D14*
%TO.C,J9*%
X125000000Y-98000000D03*
%TD*%
D15*
%TO.C,A1*%
X132457000Y-105664000D03*
D13*
X134997000Y-105664000D03*
X137537000Y-105664000D03*
X140077000Y-105664000D03*
X142617000Y-105664000D03*
X145157000Y-105664000D03*
X147697000Y-105664000D03*
X150237000Y-105664000D03*
X155317000Y-105664000D03*
X157857000Y-105664000D03*
X160397000Y-105664000D03*
X162937000Y-105664000D03*
X165477000Y-105664000D03*
X168017000Y-105664000D03*
X168017000Y-57404000D03*
X165477000Y-57404000D03*
X162937000Y-57404000D03*
X160397000Y-57404000D03*
X157857000Y-57404000D03*
X155317000Y-57404000D03*
X152777000Y-57404000D03*
X150237000Y-57404000D03*
X146177000Y-57404000D03*
X143637000Y-57404000D03*
X141097000Y-57404000D03*
X138557000Y-57404000D03*
X136017000Y-57404000D03*
X133477000Y-57404000D03*
X130937000Y-57404000D03*
X128397000Y-57404000D03*
X125857000Y-57404000D03*
X123317000Y-57404000D03*
%TD*%
M02*
