M48
; DRILL file {KiCad 7.0.2} date Wed May 10 18:03:24 2023
; FORMAT={-:-/ absolute / metric / decimal}
; #@! TF.CreationDate,2023-05-10T18:03:24-05:00
; #@! TF.GenerationSoftware,Kicad,Pcbnew,7.0.2
; #@! TF.FileFunction,MixedPlating,1,2
FMAT,2
METRIC
; #@! TA.AperFunction,Plated,PTH,ViaDrill
T1C0.400
; #@! TA.AperFunction,Plated,PTH,ComponentDrill
T2C0.500
; #@! TA.AperFunction,Plated,PTH,ComponentDrill
T3C0.800
; #@! TA.AperFunction,Plated,PTH,ComponentDrill
T4C1.000
%
G90
G05
T1
X127.762Y-64.389
X127.762Y-67.818
X158.249Y-75.692
X162.941Y-92.71
X162.941Y-95.631
X164.338Y-75.692
T2
X125.0Y-70.0
X125.0Y-75.0
X125.0Y-93.0
X125.0Y-98.0
T3
X126.111Y-79.756
X126.111Y-87.376
X128.651Y-79.756
X128.651Y-87.376
X131.191Y-79.756
X131.191Y-87.376
X133.731Y-79.756
X133.731Y-87.376
X136.271Y-79.756
X136.271Y-87.376
X138.811Y-79.756
X138.811Y-87.376
X141.351Y-79.756
X141.351Y-87.376
X143.891Y-79.756
X143.891Y-87.376
X146.558Y-76.327
X148.463Y-67.945
X154.178Y-76.327
X156.083Y-67.945
T4
X123.317Y-57.404
X125.857Y-57.404
X125.857Y-105.664
X128.397Y-57.404
X128.397Y-105.664
X130.937Y-57.404
X130.937Y-62.738
X132.457Y-105.664
X133.477Y-57.404
X133.477Y-62.738
X134.997Y-105.664
X136.017Y-57.404
X136.017Y-62.738
X137.537Y-105.664
X138.557Y-57.404
X138.557Y-62.738
X140.077Y-105.664
X141.097Y-57.404
X141.097Y-62.738
X142.617Y-105.664
X143.637Y-57.404
X143.637Y-62.738
X144.018Y-72.644
X145.157Y-105.664
X146.177Y-57.404
X146.558Y-72.644
X147.697Y-105.664
X149.098Y-72.644
X150.237Y-57.404
X150.237Y-105.664
X151.638Y-72.644
X152.777Y-57.404
X154.178Y-72.644
X155.317Y-57.404
X155.317Y-105.664
X156.718Y-72.644
X157.857Y-57.404
X157.857Y-105.664
X160.397Y-57.404
X160.397Y-105.664
X162.937Y-57.404
X162.937Y-105.664
X165.477Y-57.404
X165.477Y-105.664
X167.513Y-94.615
X167.513Y-97.155
X167.513Y-99.695
X168.017Y-57.404
X168.017Y-105.664
X168.148Y-77.47
X168.148Y-80.01
X168.148Y-82.55
X168.148Y-85.09
T0
M30
